# Blender v2.79 (sub 0) OBJ File: ''
# www.blender.org
mtllib fv.mtl
o Brian_02
v 0.463526 -1.426585 -1.919165
v 0.000000 -1.500000 -1.919165
v 0.463526 -1.426585 -0.919165
v 0.000000 -1.500000 -0.919165
v 0.881678 -1.213526 -1.919165
v 0.881678 -1.213526 -0.919165
v 1.213526 -0.881678 -1.919165
v 1.213526 -0.881678 -0.919165
v 1.426585 -0.463526 -1.919165
v 1.426585 -0.463526 -0.919165
v 1.500001 0.000000 -1.919165
v 1.500001 0.000000 -0.919165
v 1.426585 0.463526 -1.919165
v 1.426585 0.463526 -0.919165
v 1.213526 0.881678 -1.919165
v 1.213526 0.881678 -0.919165
v 0.881678 1.213526 -1.919165
v 0.881678 1.213526 -0.919165
v 0.463526 1.426585 -1.919165
v 0.463526 1.426585 -0.919165
v 0.000000 1.500000 -1.919165
v 0.000000 1.500000 -0.919165
v 0.540780 -1.664350 -1.079758
v 0.000000 -1.750001 -1.079758
v 1.028625 -1.415780 -1.079758
v 1.415781 -1.028625 -1.079758
v 1.664350 -0.540780 -1.079758
v 1.750001 0.000000 -1.079758
v 1.664350 0.540780 -1.079758
v 1.415781 1.028625 -1.079758
v 1.028625 1.415781 -1.079758
v 0.540780 1.664350 -1.079758
v 0.000000 1.750000 -1.079758
v 0.000000 -1.613761 -1.874033
v 0.566800 -1.534778 -1.874033
v 1.016665 -1.305560 -1.874033
v 1.373680 -0.948545 -1.874033
v 1.602898 -0.498680 -1.874033
v 1.681881 0.000000 -1.874033
v 1.602898 0.498680 -1.874033
v 1.373680 0.948545 -1.874033
v 1.016665 1.305560 -1.874033
v 0.566799 1.534778 -1.874033
v 0.000000 1.613760 -1.874033
v 0.839940 -0.500000 0.799324
v 0.492732 -0.500000 -0.466787
v 0.954987 -0.500000 -0.000326
v 0.792830 -0.210099 -0.220618
v 0.635380 -0.210099 -0.370837
v 0.505352 0.492567 -0.469719
v 0.954585 0.113466 -0.037513
v 0.635282 0.047172 -0.370931
v 0.792830 -0.014403 -0.220618
v 0.851356 0.115808 0.810241
v 0.606374 0.098336 1.675525
v 0.587166 -0.352272 1.696357
v 0.329761 0.031434 2.209242
v 0.320406 -0.139220 2.208214
v 0.137284 0.123101 2.340415
v 0.136388 -0.083356 2.337008
v 0.468321 0.492055 0.771675
v 0.333891 0.345764 1.625166
v 1.555587 0.047172 -1.335533
v 1.713135 -0.014402 -1.185220
v 1.555685 -0.210099 -1.335440
v 1.713135 -0.210099 -1.185220
v 0.000000 0.123101 2.340415
v 0.000000 -0.076590 2.337008
v 0.000000 0.400350 1.625166
v 0.000000 0.546641 0.771675
v 0.000000 0.547153 -0.469719
v 0.000000 -0.493234 -0.466787
v 0.000000 -0.493234 0.799324
v 0.000000 -0.345506 1.696357
v 0.000000 -0.132454 2.208214
v -0.463526 -1.426585 -1.919165
v -0.463526 -1.426585 -0.919165
v -0.881678 -1.213526 -1.919165
v -0.881678 -1.213526 -0.919165
v -1.213526 -0.881678 -1.919165
v -1.213526 -0.881678 -0.919165
v -1.426585 -0.463526 -1.919165
v -1.426585 -0.463526 -0.919165
v -1.500001 0.000000 -1.919165
v -1.500001 0.000000 -0.919165
v -1.426585 0.463526 -1.919165
v -1.426585 0.463526 -0.919165
v -1.213526 0.881678 -1.919165
v -1.213526 0.881678 -0.919165
v -0.881678 1.213526 -1.919165
v -0.881678 1.213526 -0.919165
v -0.463526 1.426585 -1.919165
v -0.463526 1.426585 -0.919165
v -0.540780 -1.664350 -1.079758
v -1.028625 -1.415780 -1.079758
v -1.415781 -1.028625 -1.079758
v -1.664350 -0.540780 -1.079758
v -1.750001 0.000000 -1.079758
v -1.664350 0.540780 -1.079758
v -1.415781 1.028625 -1.079758
v -1.028625 1.415781 -1.079758
v -0.540780 1.664350 -1.079758
v -0.566800 -1.534778 -1.874033
v -1.016665 -1.305560 -1.874033
v -1.373680 -0.948545 -1.874033
v -1.602898 -0.498680 -1.874033
v -1.681881 0.000000 -1.874033
v -1.602898 0.498680 -1.874033
v -1.373680 0.948545 -1.874033
v -1.016665 1.305560 -1.874033
v -0.566799 1.534778 -1.874033
v -0.839940 -0.500000 0.799324
v -0.954987 -0.500000 -0.000326
v -0.492732 -0.500000 -0.466787
v -0.792830 -0.210099 -0.220618
v -0.635380 -0.210099 -0.370837
v -0.505352 0.492567 -0.469719
v -0.635282 0.047172 -0.370931
v -0.954585 0.113466 -0.037513
v -0.792830 -0.014403 -0.220618
v -0.851356 0.115808 0.810241
v -0.587166 -0.352272 1.696357
v -0.606374 0.098336 1.675525
v -0.320406 -0.139220 2.208214
v -0.329761 0.031434 2.209242
v -0.136388 -0.083356 2.337008
v -0.137284 0.123101 2.340415
v -0.468321 0.492055 0.771675
v -0.333891 0.345764 1.625166
v -1.713135 -0.210099 -1.185220
v -1.713135 -0.014402 -1.185220
v -1.555685 -0.210099 -1.335440
v -1.555587 0.047172 -1.335533
vt 0.443398 0.613733
vt 0.443398 0.683906
vt 0.292008 0.613733
vt 0.292008 0.683906
vt 0.443398 0.550429
vt 0.292008 0.550429
vt 0.443398 0.500190
vt 0.292008 0.500190
vt 0.865659 0.639693
vt 0.865659 0.702997
vt 0.714270 0.639693
vt 0.714270 0.702997
vt 0.865659 0.569520
vt 0.714270 0.569520
vt 0.865659 0.499347
vt 0.714270 0.499347
vt 0.865659 0.436043
vt 0.714270 0.436043
vt 0.281881 0.674918
vt 0.281881 0.725157
vt 0.130491 0.674918
vt 0.130491 0.725157
vt 0.281881 0.611614
vt 0.130491 0.611614
vt 0.281881 0.541441
vt 0.130491 0.541441
vt 0.074141 0.052555
vt 0.003968 0.041441
vt 0.085837 0.016560
vt 0.003968 0.003593
vt 0.137445 0.084810
vt 0.159692 0.054191
vt 0.187684 0.135049
vt 0.218303 0.112802
vt 0.219939 0.198353
vt 0.255934 0.186657
vt 0.231053 0.268526
vt 0.268901 0.268526
vt 0.219939 0.338699
vt 0.255934 0.350394
vt 0.187684 0.402003
vt 0.218303 0.424249
vt 0.137445 0.452241
vt 0.159692 0.482861
vt 0.074141 0.484496
vt 0.085837 0.520491
vt 0.003968 0.495611
vt 0.003968 0.533458
vt 0.583897 0.437002
vt 0.704142 0.437002
vt 0.583897 0.518871
vt 0.704142 0.522810
vt 0.583897 0.592726
vt 0.704142 0.590915
vt 0.583897 0.651337
vt 0.704142 0.644964
vt 0.875787 0.351712
vt 0.996032 0.363836
vt 0.875787 0.425567
vt 0.996032 0.431941
vt 0.875787 0.507436
vt 0.996032 0.507436
vt 0.875787 0.589304
vt 0.996032 0.582931
vt 0.875787 0.663159
vt 0.996032 0.651036
vt 0.453525 0.558802
vt 0.453525 0.500190
vt 0.573770 0.560613
vt 0.573770 0.506564
vt 0.453525 0.632657
vt 0.573770 0.628718
vt 0.453525 0.714525
vt 0.573770 0.714525
vt 0.449737 0.015551
vt 0.535545 0.003593
vt 0.465372 0.031930
vt 0.535545 0.020815
vt 0.381632 0.050252
vt 0.402068 0.064185
vt 0.327584 0.104300
vt 0.351830 0.114423
vt 0.292883 0.172405
vt 0.319574 0.177727
vt 0.280925 0.247900
vt 0.308460 0.247900
vt 0.292883 0.323395
vt 0.319574 0.318073
vt 0.327584 0.391500
vt 0.351829 0.381377
vt 0.381632 0.445549
vt 0.402068 0.431616
vt 0.449737 0.480250
vt 0.465372 0.463871
vt 0.535545 0.492207
vt 0.535545 0.474985
vt 0.829074 0.195270
vt 0.776510 0.003593
vt 0.846491 0.074211
vt 0.401765 0.722509
vt 0.471746 0.722509
vt 0.426314 0.766397
vt 0.450150 0.766397
vt 0.469835 0.872773
vt 0.401826 0.815381
vt 0.450165 0.805345
vt 0.426314 0.796023
vt 0.950710 0.003593
vt 0.951065 0.131935
vt 0.857838 0.009223
vt 0.857838 0.130282
vt 0.948420 0.262930
vt 0.880202 0.266084
vt 0.938292 0.343729
vt 0.912456 0.343574
vt 0.597400 0.751648
vt 0.566145 0.751783
vt 0.583523 0.722509
vt 0.557687 0.723925
vt 0.614002 0.003593
vt 0.619609 0.191528
vt 0.545993 0.069025
vt 0.561621 0.197366
vt 0.639960 0.320738
vt 0.598709 0.328361
vt 0.669724 0.429019
vt 0.640585 0.409161
vt 0.390039 0.831214
vt 0.380717 0.855065
vt 0.351090 0.831229
vt 0.351090 0.855065
vt 0.351090 0.691904
vt 0.390039 0.691889
vt 0.167144 0.879171
vt 0.143293 0.901927
vt 0.027819 0.733140
vt 0.003968 0.755896
vt 0.380717 0.715740
vt 0.351090 0.715740
vt 0.201463 0.901913
vt 0.177627 0.879171
vt 0.340788 0.755882
vt 0.316952 0.733140
vt 0.597400 0.772431
vt 0.567169 0.772431
vt 0.690508 0.320738
vt 0.690508 0.429019
vt 0.690508 0.191528
vt 0.690508 0.003593
vt 0.546340 0.881037
vt 0.546340 0.723533
vt 0.701916 0.003593
vt 0.701916 0.195270
vt 0.701916 0.331071
vt 0.790806 0.331071
vt 0.701916 0.408561
vt 0.750422 0.408561
vt 0.701916 0.428060
vt 0.722563 0.428060
vt 0.443398 0.613733
vt 0.292008 0.613733
vt 0.443398 0.550429
vt 0.292008 0.550429
vt 0.443398 0.500190
vt 0.292008 0.500190
vt 0.865659 0.639693
vt 0.714270 0.639693
vt 0.865659 0.702997
vt 0.714270 0.702997
vt 0.865659 0.569520
vt 0.714270 0.569520
vt 0.865659 0.499347
vt 0.714270 0.499347
vt 0.865659 0.436043
vt 0.714270 0.436043
vt 0.281881 0.674918
vt 0.130491 0.674918
vt 0.281881 0.725157
vt 0.130491 0.725157
vt 0.281881 0.611614
vt 0.130491 0.611614
vt 0.074141 0.052555
vt 0.085837 0.016560
vt 0.137445 0.084810
vt 0.159692 0.054191
vt 0.187684 0.135049
vt 0.218303 0.112802
vt 0.219939 0.198353
vt 0.255934 0.186657
vt 0.231053 0.268526
vt 0.268901 0.268526
vt 0.219939 0.338699
vt 0.255934 0.350394
vt 0.187684 0.402003
vt 0.218303 0.424249
vt 0.137445 0.452241
vt 0.159692 0.482861
vt 0.074141 0.484496
vt 0.085837 0.520491
vt 0.704142 0.522810
vt 0.583897 0.518871
vt 0.704142 0.590915
vt 0.583897 0.592726
vt 0.704142 0.644964
vt 0.583897 0.651337
vt 0.996032 0.431941
vt 0.996032 0.363836
vt 0.875787 0.425567
vt 0.875787 0.351712
vt 0.996032 0.507436
vt 0.875787 0.507436
vt 0.875787 0.589304
vt 0.996032 0.582931
vt 0.875787 0.663159
vt 0.996032 0.651036
vt 0.453525 0.558802
vt 0.573770 0.560613
vt 0.453525 0.500190
vt 0.573770 0.506564
vt 0.453525 0.632657
vt 0.573770 0.628718
vt 0.449737 0.015551
vt 0.465372 0.031930
vt 0.381632 0.050252
vt 0.402068 0.064185
vt 0.327584 0.104300
vt 0.351830 0.114423
vt 0.292883 0.172405
vt 0.319574 0.177727
vt 0.280925 0.247900
vt 0.308460 0.247900
vt 0.319574 0.318073
vt 0.292883 0.323395
vt 0.351829 0.381377
vt 0.327584 0.391500
vt 0.402068 0.431616
vt 0.381632 0.445549
vt 0.465372 0.463871
vt 0.449737 0.480250
vt 0.829074 0.195270
vt 0.846491 0.074211
vt 0.776510 0.003593
vt 0.401765 0.722509
vt 0.426314 0.766397
vt 0.471746 0.722509
vt 0.450150 0.766397
vt 0.469835 0.872773
vt 0.450165 0.805345
vt 0.401826 0.815381
vt 0.426314 0.796023
vt 0.857838 0.130282
vt 0.951065 0.131935
vt 0.857838 0.009223
vt 0.950710 0.003593
vt 0.880202 0.266084
vt 0.948420 0.262930
vt 0.912456 0.343574
vt 0.938292 0.343729
vt 0.557687 0.723925
vt 0.566145 0.751783
vt 0.583523 0.722509
vt 0.597400 0.751648
vt 0.614002 0.003593
vt 0.545993 0.069025
vt 0.619609 0.191528
vt 0.561621 0.197366
vt 0.639960 0.320738
vt 0.598709 0.328361
vt 0.640585 0.409161
vt 0.669724 0.429019
vt 0.351090 0.855065
vt 0.380717 0.855065
vt 0.351090 0.831229
vt 0.390039 0.831214
vt 0.351090 0.691904
vt 0.390039 0.691889
vt 0.167144 0.879171
vt 0.027819 0.733140
vt 0.143293 0.901927
vt 0.003968 0.755896
vt 0.380717 0.715740
vt 0.351090 0.715740
vt 0.201463 0.901913
vt 0.340788 0.755882
vt 0.177627 0.879171
vt 0.316952 0.733140
vt 0.790806 0.331071
vt 0.750422 0.408561
vt 0.722563 0.428060
vn -0.3090 0.9511 0.0000
vn 0.0000 1.0000 0.0000
vn -0.5878 0.8090 0.0000
vn -0.8090 0.5878 0.0000
vn -0.9511 0.3090 0.0000
vn -1.0000 -0.0000 0.0000
vn -0.9511 -0.3090 -0.0000
vn -0.8090 -0.5878 -0.0000
vn -0.5878 -0.8090 -0.0000
vn -0.3090 -0.9511 -0.0000
vn 0.0000 -1.0000 -0.0000
vn 0.1670 -0.5140 0.8414
vn 0.0000 -0.5405 0.8414
vn 0.2927 -0.9505 0.1044
vn -0.0000 -0.9963 0.0860
vn 0.3177 -0.4372 0.8414
vn 0.5777 -0.8051 0.1345
vn 0.4372 -0.3177 0.8414
vn 0.7974 -0.5846 0.1499
vn 0.5140 -0.1670 0.8414
vn 0.9382 -0.3071 0.1597
vn 0.5405 -0.0000 0.8414
vn 0.9866 0.0000 0.1632
vn 0.5140 0.1670 0.8414
vn 0.9382 0.3072 0.1597
vn 0.4372 0.3177 0.8414
vn 0.7974 0.5846 0.1499
vn 0.3177 0.4372 0.8414
vn 0.5777 0.8051 0.1345
vn 0.1670 0.5140 0.8414
vn 0.2927 0.9505 0.1044
vn 0.0000 0.5405 0.8414
vn -0.0000 0.9963 0.0859
vn -0.0000 -0.9636 -0.2672
vn 0.2980 -0.9170 -0.2651
vn 0.5738 -0.7764 -0.2608
vn 0.7851 -0.5634 -0.2574
vn 0.9205 -0.2960 -0.2553
vn 0.9671 -0.0000 -0.2545
vn 0.9205 0.2960 -0.2553
vn 0.7851 0.5634 -0.2574
vn 0.5738 0.7764 -0.2608
vn 0.2980 0.9170 -0.2651
vn 0.0000 0.9636 -0.2672
vn 0.0864 -0.3205 -0.9433
vn 0.0000 -0.3556 -0.9346
vn 0.1602 -0.2352 -0.9587
vn 0.2067 -0.1569 -0.9658
vn 0.2325 -0.0786 -0.9694
vn 0.2408 0.0000 -0.9706
vn 0.2325 0.0786 -0.9694
vn 0.2067 0.1569 -0.9658
vn 0.1602 0.2352 -0.9587
vn 0.0864 0.3205 -0.9433
vn 0.0000 0.3556 -0.9346
vn -0.0094 -0.9976 0.0679
vn -0.0094 -1.0000 0.0011
vn 0.7318 -0.0870 -0.6759
vn 0.6671 -0.0927 -0.7392
vn 0.7352 -0.0826 -0.6728
vn 0.6417 -0.0672 -0.7640
vn 0.6763 0.0417 -0.7355
vn 0.7437 0.0201 -0.6682
vn 0.6486 0.0272 -0.7607
vn 0.7401 0.0256 -0.6720
vn 0.9913 -0.0061 0.1314
vn 0.9793 -0.0155 0.2017
vn 0.9913 -0.0061 0.1313
vn 0.9803 -0.0148 0.1970
vn 0.9468 -0.0254 0.3209
vn 0.9480 -0.0254 0.3172
vn 0.8855 -0.0259 0.4638
vn 0.3183 -0.0222 0.9477
vn 0.3803 -0.0230 0.9246
vn 0.5614 -0.0249 0.8272
vn 0.5614 -0.0250 0.8272
vn 0.3338 0.9425 0.0186
vn 0.4171 0.9044 0.0904
vn 0.6578 0.7519 0.0435
vn 0.6602 0.7432 0.1089
vn 0.4166 0.8719 0.2572
vn 0.6392 0.7216 0.2659
vn 0.2881 0.8834 0.3696
vn 0.5863 0.7116 0.3871
vn 0.6903 0.0000 -0.7235
vn -0.7235 -0.0005 -0.6903
vn 0.1969 0.9623 0.1878
vn 0.5523 0.6460 0.5269
vn 0.5523 0.6461 0.5269
vn 0.4838 -0.7436 0.4616
vn 0.4838 -0.7435 0.4616
vn 0.0000 -0.0171 0.9999
vn 0.0000 -0.0167 0.9999
vn 0.0000 0.9723 0.2337
vn -0.0000 0.9393 0.3432
vn -0.0000 0.9978 0.0665
vn -0.0000 1.0000 0.0021
vn -0.0000 -0.0028 -1.0000
vn -0.0002 -0.0029 -1.0000
vn -0.0000 -0.0029 -1.0000
vn -0.0000 -0.0030 -1.0000
vn -0.0000 -1.0000 0.0013
vn 0.0000 -0.9975 0.0711
vn 0.0000 -0.9746 0.2240
vn -0.0102 -0.9789 0.2039
vn -0.0000 -0.9245 0.3812
vn -0.0144 -0.9244 0.3812
vn 0.0000 -0.9244 0.3814
vn -0.0275 -0.9240 0.3813
vn 0.3090 0.9511 0.0000
vn 0.5878 0.8090 0.0000
vn 0.8090 0.5878 0.0000
vn 0.9511 0.3090 0.0000
vn 1.0000 -0.0000 0.0000
vn 0.9511 -0.3090 -0.0000
vn 0.8090 -0.5878 -0.0000
vn 0.5878 -0.8090 -0.0000
vn 0.3090 -0.9511 -0.0000
vn -0.1670 -0.5140 0.8414
vn -0.2927 -0.9505 0.1044
vn -0.3177 -0.4372 0.8414
vn -0.5777 -0.8051 0.1345
vn -0.4372 -0.3177 0.8414
vn -0.7974 -0.5846 0.1499
vn -0.5140 -0.1670 0.8414
vn -0.9382 -0.3071 0.1597
vn -0.5405 -0.0000 0.8414
vn -0.9866 -0.0000 0.1632
vn -0.5140 0.1670 0.8414
vn -0.9382 0.3072 0.1597
vn -0.4372 0.3177 0.8414
vn -0.7974 0.5845 0.1499
vn -0.3177 0.4372 0.8414
vn -0.5777 0.8051 0.1345
vn -0.1670 0.5140 0.8414
vn -0.2926 0.9505 0.1044
vn -0.2980 -0.9170 -0.2651
vn -0.5738 -0.7764 -0.2608
vn -0.7851 -0.5634 -0.2574
vn -0.9205 -0.2960 -0.2553
vn -0.9671 0.0000 -0.2545
vn -0.9205 0.2960 -0.2553
vn -0.7851 0.5634 -0.2574
vn -0.5738 0.7764 -0.2608
vn -0.2980 0.9170 -0.2651
vn -0.0864 -0.3205 -0.9433
vn -0.1602 -0.2352 -0.9587
vn -0.2067 -0.1569 -0.9658
vn -0.2325 -0.0786 -0.9694
vn -0.2408 0.0000 -0.9706
vn -0.2325 0.0784 -0.9694
vn -0.2067 0.1569 -0.9658
vn -0.1602 0.2351 -0.9587
vn -0.0864 0.3205 -0.9433
vn 0.0094 -0.9976 0.0679
vn 0.0094 -1.0000 0.0010
vn -0.7318 -0.0870 -0.6759
vn -0.7352 -0.0826 -0.6728
vn -0.6671 -0.0927 -0.7392
vn -0.6417 -0.0672 -0.7640
vn -0.6763 0.0417 -0.7355
vn -0.6486 0.0272 -0.7607
vn -0.7437 0.0201 -0.6682
vn -0.7401 0.0256 -0.6720
vn -0.9803 -0.0148 0.1970
vn -0.9793 -0.0155 0.2017
vn -0.9913 -0.0061 0.1313
vn -0.9913 -0.0061 0.1314
vn -0.9480 -0.0254 0.3172
vn -0.9468 -0.0252 0.3209
vn -0.8855 -0.0259 0.4638
vn -0.5614 -0.0250 0.8272
vn -0.3803 -0.0230 0.9246
vn -0.3183 -0.0222 0.9477
vn -0.3338 0.9425 0.0186
vn -0.6578 0.7519 0.0435
vn -0.4171 0.9044 0.0904
vn -0.6602 0.7432 0.1089
vn -0.4166 0.8719 0.2572
vn -0.6392 0.7216 0.2659
vn -0.5863 0.7116 0.3871
vn -0.2881 0.8834 0.3696
vn -0.6903 0.0000 -0.7235
vn 0.7235 -0.0005 -0.6903
vn -0.1969 0.9623 0.1878
vn -0.5523 0.6460 0.5269
vn -0.5522 0.6461 0.5269
vn -0.4838 -0.7436 0.4616
vn -0.4838 -0.7435 0.4616
vn 0.0002 -0.0029 -1.0000
vn 0.0102 -0.9789 0.2039
vn 0.0144 -0.9244 0.3812
vn 0.0275 -0.9240 0.3813
usemtl lambert2SG.001
s 1
f 1/1/1 2/2/2 3/3/1
f 3/3/1 2/2/2 4/4/2
f 5/5/3 1/1/1 6/6/3
f 6/6/3 1/1/1 3/3/1
f 7/7/4 5/5/3 8/8/4
f 8/8/4 5/5/3 6/6/3
f 9/9/5 7/10/4 10/11/5
f 10/11/5 7/10/4 8/12/4
f 11/13/6 9/9/5 12/14/6
f 12/14/6 9/9/5 10/11/5
f 13/15/7 11/13/6 14/16/7
f 14/16/7 11/13/6 12/14/6
f 15/17/8 13/15/7 16/18/8
f 16/18/8 13/15/7 14/16/7
f 17/19/9 15/20/8 18/21/9
f 18/21/9 15/20/8 16/22/8
f 19/23/10 17/19/9 20/24/10
f 20/24/10 17/19/9 18/21/9
f 21/25/11 19/23/10 22/26/11
f 22/26/11 19/23/10 20/24/10
f 3/27/12 4/28/13 23/29/14
f 23/29/14 4/28/13 24/30/15
f 6/31/16 3/27/12 25/32/17
f 25/32/17 3/27/12 23/29/14
f 8/33/18 6/31/16 26/34/19
f 26/34/19 6/31/16 25/32/17
f 10/35/20 8/33/18 27/36/21
f 27/36/21 8/33/18 26/34/19
f 12/37/22 10/35/20 28/38/23
f 28/38/23 10/35/20 27/36/21
f 14/39/24 12/37/22 29/40/25
f 29/40/25 12/37/22 28/38/23
f 16/41/26 14/39/24 30/42/27
f 30/42/27 14/39/24 29/40/25
f 18/43/28 16/41/26 31/44/29
f 31/44/29 16/41/26 30/42/27
f 20/45/30 18/43/28 32/46/31
f 32/46/31 18/43/28 31/44/29
f 22/47/32 20/45/30 33/48/33
f 33/48/33 20/45/30 32/46/31
f 24/49/15 34/50/34 23/51/14
f 23/51/14 34/50/34 35/52/35
f 23/51/14 35/52/35 25/53/17
f 25/53/17 35/52/35 36/54/36
f 25/53/17 36/54/36 26/55/19
f 26/55/19 36/54/36 37/56/37
f 26/57/19 37/58/37 27/59/21
f 27/59/21 37/58/37 38/60/38
f 27/59/21 38/60/38 28/61/23
f 28/61/23 38/60/38 39/62/39
f 29/63/25 28/61/23 40/64/40
f 40/64/40 28/61/23 39/62/39
f 30/65/27 29/63/25 41/66/41
f 41/66/41 29/63/25 40/64/40
f 31/67/29 30/68/27 42/69/42
f 42/69/42 30/68/27 41/70/41
f 32/71/31 31/67/29 43/72/43
f 43/72/43 31/67/29 42/69/42
f 33/73/33 32/71/31 44/74/44
f 44/74/44 32/71/31 43/72/43
f 35/75/35 34/76/34 1/77/45
f 1/77/45 34/76/34 2/78/46
f 36/79/36 35/75/35 5/80/47
f 5/80/47 35/75/35 1/77/45
f 37/81/37 36/79/36 7/82/48
f 7/82/48 36/79/36 5/80/47
f 38/83/38 37/81/37 9/84/49
f 9/84/49 37/81/37 7/82/48
f 39/85/39 38/83/38 11/86/50
f 11/86/50 38/83/38 9/84/49
f 39/85/39 11/86/50 40/87/40
f 40/87/40 11/86/50 13/88/51
f 40/87/40 13/88/51 41/89/41
f 41/89/41 13/88/51 15/90/52
f 41/89/41 15/90/52 42/91/42
f 42/91/42 15/90/52 17/92/53
f 42/91/42 17/92/53 43/93/43
f 43/93/43 17/92/53 19/94/54
f 43/93/43 19/94/54 44/95/44
f 44/95/44 19/94/54 21/96/55
f 45/97/56 46/98/57 47/99/11
f 47/100/58 46/101/59 48/102/60
f 48/102/60 46/101/59 49/103/61
f 50/104/62 51/105/63 52/106/64
f 52/106/64 51/105/63 53/107/65
f 51/108/66 54/109/67 47/110/68
f 47/110/68 54/109/67 45/111/69
f 55/112/70 56/113/71 54/109/67
f 54/109/67 56/113/71 45/111/69
f 57/114/72 58/115/72 55/112/70
f 55/112/70 58/115/72 56/113/71
f 59/116/73 60/117/74 57/118/75
f 57/118/75 60/117/74 58/119/76
f 50/120/77 61/121/78 51/122/79
f 51/122/79 61/121/78 54/123/80
f 61/121/78 62/124/81 54/123/80
f 54/123/80 62/124/81 55/125/82
f 59/126/83 57/127/84 62/124/81
f 62/124/81 57/127/84 55/125/82
f 63/128/85 64/129/85 65/130/85
f 65/130/85 64/129/85 66/131/85
f 50/104/62 52/106/64 46/101/59
f 46/101/59 52/106/64 49/103/61
f 47/100/58 48/102/60 51/105/63
f 51/105/63 48/102/60 53/107/65
f 49/132/86 52/133/86 65/130/86
f 65/130/86 52/133/86 63/128/86
f 52/134/87 53/135/88 63/136/87
f 63/136/87 53/135/88 64/137/89
f 53/138/88 48/139/90 64/129/89
f 64/129/89 48/139/90 66/131/91
f 48/140/90 49/141/11 66/142/91
f 66/142/91 49/141/11 65/143/11
f 67/144/92 68/145/93 59/116/73
f 59/116/73 68/145/93 60/117/74
f 62/124/81 69/146/94 59/126/83
f 59/126/83 69/146/94 67/147/95
f 69/146/94 62/124/81 70/148/96
f 70/148/96 62/124/81 61/121/78
f 50/120/77 71/149/97 61/121/78
f 61/121/78 71/149/97 70/148/96
f 71/150/98 50/104/99 72/151/100
f 72/151/100 50/104/99 46/101/101
f 72/152/102 46/98/57 73/153/103
f 73/153/103 46/98/57 45/97/56
f 74/154/104 73/153/103 56/155/105
f 56/155/105 73/153/103 45/97/56
f 75/156/106 74/154/104 58/157/107
f 58/157/107 74/154/104 56/155/105
f 68/158/108 75/156/106 60/159/109
f 60/159/109 75/156/106 58/157/107
f 76/160/110 77/161/110 2/2/2
f 2/2/2 77/161/110 4/4/2
f 78/162/111 79/163/111 76/160/110
f 76/160/110 79/163/111 77/161/110
f 80/164/112 81/165/112 78/162/111
f 78/162/111 81/165/112 79/163/111
f 82/166/113 83/167/113 80/168/112
f 80/168/112 83/167/113 81/169/112
f 84/170/114 85/171/114 82/166/113
f 82/166/113 85/171/114 83/167/113
f 86/172/115 87/173/115 84/170/114
f 84/170/114 87/173/115 85/171/114
f 88/174/116 89/175/116 86/172/115
f 86/172/115 89/175/116 87/173/115
f 90/176/117 91/177/117 88/178/116
f 88/178/116 91/177/117 89/179/116
f 92/180/118 93/181/118 90/176/117
f 90/176/117 93/181/118 91/177/117
f 21/25/11 22/26/11 92/180/118
f 92/180/118 22/26/11 93/181/118
f 77/182/119 94/183/120 4/28/13
f 4/28/13 94/183/120 24/30/15
f 79/184/121 95/185/122 77/182/119
f 77/182/119 95/185/122 94/183/120
f 81/186/123 96/187/124 79/184/121
f 79/184/121 96/187/124 95/185/122
f 83/188/125 97/189/126 81/186/123
f 81/186/123 97/189/126 96/187/124
f 85/190/127 98/191/128 83/188/125
f 83/188/125 98/191/128 97/189/126
f 87/192/129 99/193/130 85/190/127
f 85/190/127 99/193/130 98/191/128
f 89/194/131 100/195/132 87/192/129
f 87/192/129 100/195/132 99/193/130
f 91/196/133 101/197/134 89/194/131
f 89/194/131 101/197/134 100/195/132
f 93/198/135 102/199/136 91/196/133
f 91/196/133 102/199/136 101/197/134
f 22/47/32 33/48/33 93/198/135
f 93/198/135 33/48/33 102/199/136
f 103/200/137 34/50/34 94/201/120
f 94/201/120 34/50/34 24/49/15
f 104/202/138 103/200/137 95/203/122
f 95/203/122 103/200/137 94/201/120
f 105/204/139 104/202/138 96/205/124
f 96/205/124 104/202/138 95/203/122
f 106/206/140 105/207/139 97/208/126
f 97/208/126 105/207/139 96/209/124
f 107/210/141 106/206/140 98/211/128
f 98/211/128 106/206/140 97/208/126
f 99/212/130 108/213/142 98/211/128
f 98/211/128 108/213/142 107/210/141
f 100/214/132 109/215/143 99/212/130
f 99/212/130 109/215/143 108/213/142
f 101/216/134 110/217/144 100/218/132
f 100/218/132 110/217/144 109/219/143
f 102/220/136 111/221/145 101/216/134
f 101/216/134 111/221/145 110/217/144
f 33/73/33 44/74/44 102/220/136
f 102/220/136 44/74/44 111/221/145
f 103/222/137 76/223/146 34/76/34
f 34/76/34 76/223/146 2/78/46
f 104/224/138 78/225/147 103/222/137
f 103/222/137 78/225/147 76/223/146
f 105/226/139 80/227/148 104/224/138
f 104/224/138 80/227/148 78/225/147
f 106/228/140 82/229/149 105/226/139
f 105/226/139 82/229/149 80/227/148
f 107/230/141 84/231/150 106/228/140
f 106/228/140 84/231/150 82/229/149
f 86/232/151 84/231/150 108/233/142
f 108/233/142 84/231/150 107/230/141
f 88/234/152 86/232/151 109/235/143
f 109/235/143 86/232/151 108/233/142
f 90/236/153 88/234/152 110/237/144
f 110/237/144 88/234/152 109/235/143
f 92/238/154 90/236/153 111/239/145
f 111/239/145 90/236/153 110/237/144
f 21/96/55 92/238/154 44/95/44
f 44/95/44 92/238/154 111/239/145
f 112/240/155 113/241/11 114/242/156
f 113/243/157 115/244/158 114/245/159
f 114/245/159 115/244/158 116/246/160
f 117/247/161 118/248/162 119/249/163
f 119/249/163 118/248/162 120/250/164
f 112/251/165 121/252/166 113/253/167
f 113/253/167 121/252/166 119/254/168
f 112/251/165 122/255/169 121/252/166
f 121/252/166 122/255/169 123/256/170
f 122/255/169 124/257/171 123/256/170
f 123/256/170 124/257/171 125/258/171
f 124/259/172 126/260/173 125/261/172
f 125/261/172 126/260/173 127/262/174
f 117/263/175 119/264/176 128/265/177
f 128/265/177 119/264/176 121/266/178
f 128/265/177 121/266/178 129/267/179
f 129/267/179 121/266/178 123/268/180
f 123/268/180 125/269/181 129/267/179
f 129/267/179 125/269/181 127/270/182
f 130/271/183 131/272/183 132/273/183
f 132/273/183 131/272/183 133/274/183
f 116/246/160 118/248/162 114/245/159
f 114/245/159 118/248/162 117/247/161
f 113/243/157 119/249/163 115/244/158
f 115/244/158 119/249/163 120/250/164
f 116/275/184 132/273/184 118/276/184
f 118/276/184 132/273/184 133/274/184
f 118/277/185 133/278/185 120/279/186
f 120/279/186 133/278/185 131/280/187
f 120/281/186 131/272/187 115/282/188
f 115/282/188 131/272/187 130/271/189
f 115/283/188 130/284/189 116/285/11
f 116/285/11 130/284/189 132/286/11
f 126/260/173 68/145/93 127/262/174
f 127/262/174 68/145/93 67/144/92
f 129/267/179 127/270/182 69/146/94
f 69/146/94 127/270/182 67/147/95
f 128/265/177 129/267/179 70/148/96
f 70/148/96 129/267/179 69/146/94
f 117/263/175 128/265/177 71/149/97
f 71/149/97 128/265/177 70/148/96
f 114/245/101 117/247/190 72/151/100
f 72/151/100 117/247/190 71/150/98
f 112/240/155 114/242/156 73/153/103
f 73/153/103 114/242/156 72/152/102
f 112/240/155 73/153/103 122/287/191
f 122/287/191 73/153/103 74/154/104
f 122/287/191 74/154/104 124/288/192
f 124/288/192 74/154/104 75/156/106
f 124/288/192 75/156/106 126/289/193
f 126/289/193 75/156/106 68/158/108
